<svg width="37" height="58" viewBox="0 0 37 58" fill="none" xmlns="http://www.w3.org/2000/svg">
<path d="M13.5436 10.8076C10.1082 11.7705 7.0702 13.753 5.41376 16.1328C4.58885 17.318 4.11575 18.5877 4.08466 19.873C4.0538 21.153 4.46022 22.4885 5.45966 23.8164L5.73017 24.1641C7.13766 25.9208 9.3664 27.9465 11.7614 30.167C14.2932 32.5143 16.9901 35.0618 18.944 37.6523C20.888 40.2298 22.1795 42.9567 21.7184 45.6436C21.2675 48.2708 19.1784 50.6726 14.8972 52.7793L14.4753 52.9814C13.6067 53.3914 12.5532 53.9609 11.3981 54.5723C10.2503 55.1798 9.01053 55.8244 7.7956 56.3691C6.58422 56.9123 5.37314 57.3674 4.2829 57.585C3.2072 57.7996 2.15553 57.8018 1.33661 57.3242L1.19208 57.2402L1.12763 57.0869C-0.416137 53.4202 0.219441 44.1746 11.3649 37.6553L11.6179 38.0869L11.8698 38.5186C1.27613 44.7152 0.744254 53.2641 1.98505 56.5342C2.48104 56.7587 3.18305 56.785 4.08759 56.6045C5.06938 56.4086 6.2007 55.9886 7.38642 55.457C8.5689 54.9268 9.78354 54.2955 10.9304 53.6885C12.0699 53.0853 13.153 52.4998 14.0485 52.0771L14.8522 51.6816C18.7216 49.6949 20.3731 47.5712 20.7331 45.4736C21.1212 43.211 20.0471 40.7766 18.1452 38.2549C16.2531 35.7462 13.6226 33.2561 11.0817 30.9004C8.7211 28.7118 6.41709 26.6216 4.94403 24.7822L4.66083 24.418C3.53902 22.9275 3.04794 21.3754 3.08466 19.8496C3.12133 18.3292 3.68095 16.8726 4.59345 15.5615C6.41211 12.9488 9.67051 10.8547 13.2741 9.84473L13.5436 10.8076ZM35.1198 0.888672C35.6737 1.90401 37.2653 5.25504 36.8386 9.05078C36.6237 10.9616 35.8978 12.9808 34.2829 14.8555C32.6708 16.7268 30.1939 18.4296 26.5173 19.75L26.3483 19.2793L26.1794 18.8096C29.7346 17.5328 32.0509 15.9143 33.5251 14.2031C34.9962 12.4955 35.6508 10.6698 35.8454 8.93848C36.1958 5.82084 35.0534 2.99207 34.4352 1.74414L26.5143 4.52832L26.4831 4.53809C23.0474 5.50088 20.0098 7.48335 18.3532 9.86328C17.5282 11.0486 17.0552 12.318 17.0241 13.6035C16.9933 14.8835 17.3995 16.2189 18.3991 17.5469L18.6686 17.8936C20.0736 19.6437 22.293 21.6296 24.6755 23.792C27.1933 26.0772 29.8738 28.5438 31.8112 31.0527C33.7383 33.5484 35.0186 36.1969 34.5417 38.8281C34.0611 41.4794 31.8388 43.908 27.278 46.0605L27.0642 45.6084L26.8513 45.1562C31.3035 43.0549 33.1629 40.8254 33.5573 38.6494C33.9551 36.4537 32.9035 34.1043 31.0192 31.6641C29.1449 29.2368 26.5328 26.8278 24.0036 24.5322C21.6546 22.4002 19.3572 20.3493 17.8835 18.5127L17.6003 18.1484C16.4784 16.658 15.9875 15.1059 16.0241 13.5801C16.0608 12.0597 16.6195 10.603 17.5319 9.29199C19.3466 6.68492 22.595 4.59451 26.1892 3.58203L34.5153 0.65625L34.9167 0.515625L35.1198 0.888672Z" fill="#DFE1E6"/>
</svg>
