<svg width="37" height="58" viewBox="0 0 37 58" fill="none" xmlns="http://www.w3.org/2000/svg">
<path d="M13.0359 10.292C9.60034 11.2548 6.56251 13.2373 4.90602 15.6172C4.08107 16.8024 3.60801 18.072 3.57692 19.3574C3.54606 20.6374 3.9524 21.9728 4.95192 23.3008L5.22242 23.6484C6.62995 25.4052 8.85859 27.4308 11.2537 29.6514C13.7855 31.9987 16.4824 34.5461 18.4363 37.1367C20.3802 39.7142 21.6718 42.4411 21.2107 45.1279C20.7597 47.7552 18.6706 50.157 14.3894 52.2637L13.9675 52.4658C13.0989 52.8758 12.0456 53.4452 10.8904 54.0566C9.74246 54.6643 8.50286 55.3087 7.28785 55.8535C6.0764 56.3967 4.86547 56.8517 3.77516 57.0693C2.69935 57.284 1.64786 57.2862 0.82887 56.8086L0.684339 56.7246L0.619886 56.5713C-0.923946 52.9046 -0.288617 43.6591 10.8572 37.1396L11.1101 37.5713L11.3621 38.0029C0.768069 44.1996 0.236455 52.7486 1.47731 56.0186C1.97335 56.2431 2.67517 56.2694 3.57985 56.0889C4.56171 55.8929 5.69286 55.4731 6.87867 54.9414C8.06123 54.4112 9.27573 53.7799 10.4226 53.1729C11.5623 52.5696 12.6452 51.9842 13.5408 51.5615L14.3445 51.166C18.2139 49.1793 19.8654 47.0556 20.2254 44.958C20.6134 42.6954 19.5394 40.261 17.6375 37.7393C15.7453 35.2306 13.1149 32.7405 10.574 30.3848C8.2133 28.1961 5.90938 26.1061 4.43629 24.2666L4.15309 23.9023C3.0312 22.4118 2.5402 20.8599 2.57692 19.334C2.61359 17.8135 3.17317 16.357 4.08571 15.0459C5.90441 12.4331 9.16267 10.339 12.7664 9.3291L13.0359 10.292ZM34.6111 0.373047C35.1648 1.38805 36.7566 4.73906 36.3298 8.53516C36.1149 10.446 35.3891 12.4652 33.7742 14.3398C32.162 16.2112 29.6852 17.914 26.0086 19.2344L25.8396 18.7637L25.6707 18.2939C29.2259 17.0172 31.5422 15.3986 33.0164 13.6875C34.4875 11.9798 35.142 10.1541 35.3367 8.42285C35.6871 5.30499 34.5447 2.47631 33.9265 1.22852L26.0056 4.0127L25.9744 4.02246C22.5388 4.9853 19.501 6.96776 17.8445 9.34766C17.0196 10.5329 16.5464 11.8025 16.5154 13.0879C16.4846 14.3679 16.8909 15.7033 17.8904 17.0312L18.1599 17.3779C19.5649 19.1281 21.7842 21.1139 24.1668 23.2764C26.6847 25.5617 29.365 28.0281 31.3025 30.5371C33.2297 33.0329 34.5099 35.6812 34.033 38.3125C33.5523 40.9638 31.3301 43.3924 26.7693 45.5449L26.5554 45.0928L26.3425 44.6406C30.7949 42.5393 32.6541 40.3098 33.0486 38.1338C33.4464 35.9379 32.3949 33.5888 30.5105 31.1484C28.6361 28.7211 26.0242 26.3122 23.4949 24.0166C21.1458 21.8845 18.8485 19.8337 17.3748 17.9971L17.0916 17.6328C15.9697 16.1424 15.4788 14.5902 15.5154 13.0645C15.552 11.5442 16.1108 10.0873 17.0232 8.77637C18.8378 6.16933 22.0863 4.07893 25.6804 3.06641L34.0066 0.140625L34.408 0L34.6111 0.373047Z" fill="black"/>
</svg>
