<svg width="39" height="36" viewBox="0 0 39 36" fill="none" xmlns="http://www.w3.org/2000/svg">
<path d="M5.15209 17.9274C5.30514 17.9736 5.46415 17.998 5.62428 18C5.97209 17.9986 6.31022 17.8875 6.58866 17.6832C6.86711 17.4788 7.0711 17.192 7.17047 16.8651C8.10066 13.8357 10.1381 11.2495 12.8923 9.60185C13.3138 9.34233 13.7531 9.11177 14.207 8.91184C14.8965 10.2301 16.0502 11.2583 17.4541 11.8056C18.858 12.353 20.4167 12.3823 21.841 11.8882C23.2653 11.3941 24.4584 10.4101 25.1989 9.11878C25.9394 7.82747 26.1771 6.31656 25.8678 4.86645C25.5585 3.41635 24.7232 2.12552 23.5169 1.23352C22.3107 0.341517 20.8154 -0.0910757 19.3086 0.0160177C17.8017 0.123111 16.3857 0.762619 15.3232 1.81586C14.2607 2.8691 13.624 4.26455 13.5312 5.74324C12.708 6.06651 11.9176 6.4647 11.1702 6.9326C7.75279 8.97892 5.2245 12.1887 4.06883 15.9481C3.94496 16.3515 3.98949 16.7865 4.19262 17.1577C4.39575 17.5288 4.74087 17.8057 5.15209 17.9274ZM19.7622 3.18294C20.3573 3.18294 20.9391 3.356 21.4339 3.68022C21.9288 4.00445 22.3145 4.46529 22.5422 5.00446C22.77 5.54363 22.8295 6.13691 22.7134 6.70929C22.5973 7.28167 22.3108 7.80744 21.8899 8.2201C21.4691 8.63276 20.9329 8.91379 20.3492 9.02764C19.7655 9.1415 19.1605 9.08307 18.6107 8.85974C18.0609 8.6364 17.5909 8.2582 17.2603 7.77296C16.9296 7.28772 16.7532 6.71724 16.7532 6.13364C16.7556 5.3518 17.0734 4.60267 17.6372 4.04983C18.201 3.49698 18.9649 3.18534 19.7622 3.18294Z" fill="#659238"/>
<path d="M26.5201 30.8295C24.449 32.1617 22.0335 32.8684 19.5663 32.8639C16.679 32.8764 13.8746 31.9054 11.6205 30.1126C11.245 29.8067 10.8867 29.4806 10.5472 29.1357C11.4924 28.1175 12.0567 26.8074 12.1455 25.425C12.2343 24.0426 11.8422 22.6718 11.0349 21.5425C10.2276 20.4131 9.05415 19.5938 7.71126 19.2218C6.36837 18.8499 4.93761 18.9478 3.65877 19.4993C2.37992 20.0508 1.3307 21.0223 0.686942 22.251C0.0431853 23.4797 -0.155988 24.891 0.122802 26.2482C0.401592 27.6055 1.1414 28.8263 2.21825 29.706C3.2951 30.5858 4.64355 31.071 6.03761 31.0805C6.62416 31.0826 7.20777 30.998 7.76928 30.8295C10.316 33.6027 13.77 35.3885 17.5172 35.8693C21.2643 36.3501 25.0616 35.4948 28.2337 33.4554C28.4157 33.3469 28.5738 33.203 28.6985 33.0324C28.8233 32.8618 28.9121 32.668 28.9597 32.4625C29.0074 32.257 29.0128 32.0441 28.9757 31.8364C28.9386 31.6288 28.8598 31.4307 28.7439 31.2541C28.628 31.0774 28.4774 30.9258 28.3012 30.8083C28.125 30.6908 27.9267 30.6098 27.7183 30.5702C27.5099 30.5305 27.2955 30.5331 27.0881 30.5776C26.8807 30.6222 26.6844 30.7079 26.5111 30.8295H26.5201ZM3.97222 27.0924C3.56277 26.6849 3.28408 26.1659 3.17137 25.6011C3.05866 25.0362 3.117 24.4508 3.339 23.9189C3.561 23.387 3.9367 22.9324 4.41863 22.6125C4.90056 22.2927 5.46709 22.122 6.04662 22.122C6.62616 22.122 7.19269 22.2927 7.67462 22.6125C8.15655 22.9324 8.53226 23.387 8.75426 23.9189C8.97626 24.4508 9.03459 25.0362 8.92188 25.6011C8.80917 26.1659 8.53048 26.6849 8.12103 27.0924C7.84939 27.3645 7.52623 27.5804 7.1702 27.7277C6.81417 27.8751 6.4323 27.951 6.04662 27.951C5.66095 27.951 5.27908 27.8751 4.92305 27.7277C4.56702 27.5804 4.24387 27.3645 3.97222 27.0924Z" fill="#659238"/>
<path d="M37.2842 20.585C36.7644 20.0429 36.1497 19.609 35.4734 19.3064C35.4411 18.4659 35.3484 17.6291 35.1961 16.8031C34.4614 12.986 32.3858 9.58983 29.3737 7.27614C29.049 7.04478 28.6504 6.95374 28.2623 7.02227C27.8742 7.0908 27.5269 7.31353 27.294 7.64335C27.061 7.97318 26.9606 8.38424 27.014 8.7896C27.0674 9.19497 27.2705 9.56285 27.5802 9.81545C29.9814 11.661 31.6343 14.3708 32.2156 17.4154C32.3057 17.9039 32.3722 18.3967 32.4148 18.8921C31.1038 19.0652 29.8878 19.6945 28.965 20.6777C28.0422 21.6609 27.4671 22.9399 27.3332 24.3063C27.1994 25.6727 27.5148 27.0459 28.228 28.2022C28.9412 29.3584 30.0102 30.2296 31.2608 30.6736C32.5114 31.1176 33.8698 31.1084 35.1147 30.6473C36.3596 30.1863 37.4175 29.3007 38.1161 28.1348C38.8147 26.9689 39.1127 25.5915 38.9617 24.2271C38.8106 22.8626 38.2193 21.5916 37.2842 20.621V20.585ZM35.1441 26.9513C34.8852 27.2335 34.5747 27.4591 34.2307 27.6149C33.8868 27.7706 33.5163 27.8533 33.1412 27.8582C32.766 27.863 32.3937 27.7899 32.0461 27.6432C31.6985 27.4964 31.3826 27.2789 31.1171 27.0035C30.8515 26.7281 30.6415 26.4003 30.4995 26.0394C30.3576 25.6784 30.2864 25.2917 30.2903 24.9018C30.2941 24.5119 30.3729 24.1267 30.522 23.7689C30.6711 23.4111 30.8875 23.0878 31.1585 22.8182C31.4155 22.5368 31.7244 22.312 32.0668 22.1573C32.4092 22.0026 32.778 21.9211 33.1513 21.9177C33.3111 21.9189 33.4705 21.9339 33.6279 21.9627H33.7145H33.7751C34.2926 22.0867 34.7666 22.3579 35.1441 22.7461C35.6706 23.2947 35.9662 24.0379 35.9662 24.8127C35.9662 25.5875 35.6706 26.3307 35.1441 26.8793V26.9513Z" fill="#659238"/>
</svg>
