<svg width="35" height="35" viewBox="0 0 35 35" fill="none" xmlns="http://www.w3.org/2000/svg">
<path d="M24.9865 16.6666L32.0092 9.6441C32.1347 9.51816 32.2081 9.35266 32.2249 9.17725C32.3934 9.16051 32.5581 9.09089 32.6871 8.96152C34.5219 7.12647 34.5219 4.14085 32.6871 2.3058C31.7984 1.41624 30.6168 0.926562 29.3595 0.926562C28.1022 0.926562 26.9206 1.41662 26.0319 2.3058C25.8999 2.43783 25.8302 2.60638 25.8154 2.77835C25.6435 2.79433 25.4764 2.86092 25.352 2.98572L18.3305 10.0097L8.53634 0.214305C8.25102 -0.0718153 7.74543 -0.0710544 7.46011 0.214305L0.222836 7.45559C-0.0742787 7.75274 -0.0742787 8.23443 0.222836 8.53158L10.0151 18.327L3.66686 24.6765C3.58887 24.7545 3.52876 24.8481 3.4911 24.9515L1.14576 31.3185C0.67022 32.6056 1.10087 33.3 1.39988 33.5991C1.60265 33.8022 1.98726 34.0659 2.61611 34.0659C2.91361 34.0659 3.26588 34.007 3.67903 33.854L10.0303 31.514C10.1357 31.4779 10.235 31.4178 10.319 31.3337L10.3198 31.3329L16.6699 24.9831L26.4625 34.777C26.6052 34.9197 26.7988 35 27.0004 35C27.2024 35 27.3961 34.9197 27.5387 34.777L34.7772 27.5358C35.0743 27.2386 35.0743 26.7569 34.7772 26.4598L24.9865 16.6666ZM29.3599 2.44886C30.2101 2.44886 31.0098 2.78026 31.6112 3.38217C32.8526 4.62406 32.8526 6.64402 31.6112 7.88591C31.5618 7.93537 31.5234 7.9913 31.4906 8.04951L26.9449 3.50279C27.0031 3.46969 27.059 3.43126 27.1085 3.38179C27.7096 2.78026 28.5092 2.44886 29.3599 2.44886ZM9.38736 15.5461L11.345 13.5878C11.6422 13.2906 11.6422 12.8085 11.345 12.5114C11.0479 12.2146 10.5663 12.2142 10.2688 12.5114L8.31151 14.4697L5.674 11.8315L7.63054 9.87467C7.92766 9.57752 7.92766 9.09583 7.63054 8.79868C7.33343 8.50152 6.85142 8.50152 6.55469 8.79868L4.59815 10.7555L1.83699 7.99358L7.9988 1.8283L17.2546 11.0857L11.0909 17.2506L9.38736 15.5461ZM9.78187 29.7182L7.27864 27.2143C6.98191 26.9171 6.49953 26.9171 6.20279 27.2143C5.90568 27.5114 5.90568 27.9931 6.20279 28.2902L8.40319 30.4913L3.15252 32.4261C2.71693 32.5866 2.50465 32.5406 2.47992 32.5269C2.45861 32.4942 2.4122 32.2819 2.5735 31.8451V31.8443L4.86102 25.6341L11.6148 18.8791C11.6197 18.8745 11.6254 18.8711 11.6304 18.8665C11.6353 18.862 11.6384 18.8559 11.6429 18.8509L18.8372 11.6549C18.8482 11.645 18.8608 11.6378 18.8714 11.6268C18.8821 11.6161 18.8893 11.6036 18.8996 11.5925L25.89 4.60047L30.3946 9.1061L16.1582 23.3425C16.1491 23.3509 16.1384 23.357 16.1293 23.3661C16.1202 23.3752 16.1141 23.3855 16.1057 23.3946L9.78187 29.7182ZM27.0004 33.1623L24.2374 30.3992L26.1951 28.4413C26.4922 28.1441 26.4922 27.6625 26.1951 27.3653C25.8983 27.0681 25.416 27.0681 25.1192 27.3653L23.1615 29.3232L20.5248 26.6858L22.4829 24.7274C22.78 24.4303 22.78 23.9486 22.4829 23.6514C22.1861 23.3543 21.7037 23.3543 21.407 23.6514L19.4489 25.6098L17.7458 23.9067L23.9102 17.7426L33.1626 26.9974L27.0004 33.1623Z" fill="#659238"/>
</svg>
